<?xml version="1.0" encoding="UTF-8" standalone="no"?>
<!-- Created with Inkscape (http://www.inkscape.org/) -->

<svg
   width="132.60413mm"
   height="129.32172mm"
   viewBox="0 0 132.60413 129.32172"
   version="1.1"
   id="svg5"
   xml:space="preserve"
   xmlns:xlink="http://www.w3.org/1999/xlink"
   xmlns="http://www.w3.org/2000/svg"
   xmlns:svg="http://www.w3.org/2000/svg"><defs
     id="defs2"><linearGradient
       id="linearGradient3089"><stop
         style="stop-color:#000000;stop-opacity:1;"
         offset="0"
         id="stop3087" /></linearGradient><linearGradient
       id="linearGradient3028"><stop
         style="stop-color:#ffffff;stop-opacity:0.20784312;"
         offset="0"
         id="stop3026" /></linearGradient><linearGradient
       id="linearGradient2972"><stop
         style="stop-color:#d5ecff;stop-opacity:1;"
         offset="0"
         id="stop2970" /></linearGradient><linearGradient
       xlink:href="#linearGradient3089"
       id="linearGradient3091"
       x1="36.022552"
       y1="144.80418"
       x2="168.62666"
       y2="144.80418"
       gradientUnits="userSpaceOnUse" /></defs><g
     id="layer1"
     transform="translate(-36.02255,-80.143331)"><path
       d="m 80.602332,183.85749 c 0,0.52916 -0.608542,0.9525 -1.375833,0.9525 -0.873125,0.0794 -1.481667,-0.34396 -1.481667,-0.9525 0,-0.52917 0.608542,-0.9525 1.375833,-0.9525 0.79375,-0.0794 1.481667,0.34395 1.481667,0.9525 z m -8.228542,-1.19063 c -0.185208,0.52917 0.343959,1.13771 1.137709,1.29646 0.687916,0.26458 1.481666,0 1.640416,-0.52917 0.15875,-0.52916 -0.343958,-1.13771 -1.137708,-1.37583 -0.687917,-0.18521 -1.455208,0.0794 -1.640417,0.60854 z m 11.694584,-0.44979 c -0.767292,0.18521 -1.296459,0.68792 -1.217084,1.29646 0.07937,0.52916 0.767292,0.87312 1.561042,0.68791 0.767292,-0.1852 1.296458,-0.68791 1.217083,-1.21708 -0.07937,-0.50271 -0.79375,-0.84667 -1.561041,-0.76729 z M 101.47796,80.828738 c -36.697711,0 -64.770003,27.860622 -64.770003,64.558332 0,29.34229 18.467917,54.45125 44.846875,63.28833 3.386667,0.60854 4.577292,-1.48166 4.577292,-3.20146 0,-1.64041 -0.07937,-10.68916 -0.07937,-16.24541 0,0 -18.520834,3.96875 -22.410209,-7.88459 0,0 -3.01625,-7.69937 -7.355416,-9.68374 0,0 -6.058959,-4.15396 0.423333,-4.07459 0,0 6.588125,0.52917 10.212917,6.82625 5.794375,10.21292 15.504583,7.27604 19.288125,5.52979 0.608541,-4.23333 2.328333,-7.1702 4.233333,-8.91645 -14.790208,-1.64042 -29.712708,-3.78355 -29.712708,-29.23646 0,-7.27604 2.010833,-10.92729 6.244166,-15.58396 -0.687916,-1.71979 -2.936875,-8.81063 0.687917,-17.96521 5.529792,-1.71979 18.25625,7.14375 18.25625,7.14375 5.291667,-1.48167 10.980208,-2.24896 16.615828,-2.24896 5.63563,0 11.32417,0.76729 16.61584,2.24896 0,0 12.72646,-8.89 18.25626,-7.14375 3.62479,9.18104 1.37583,16.24542 0.68791,17.96521 4.23334,4.68312 6.82625,8.33437 6.82625,15.58396 0,25.53229 -15.58396,27.56958 -30.37417,29.23646 2.43416,2.0902 4.49791,6.05895 4.49791,12.27666 0,8.91646 -0.0794,19.94958 -0.0794,22.11917 0,1.71979 1.21709,3.81 4.5773,3.20146 26.45833,-8.78417 44.39708,-33.89313 44.39708,-63.23542 0,-36.69771 -29.76562,-64.558332 -66.46333,-64.558332 z M 62.425457,172.08353 c -0.343958,0.26458 -0.264583,0.87312 0.185208,1.37583 0.423334,0.42334 1.031875,0.60854 1.375834,0.26459 0.343958,-0.26459 0.264583,-0.87313 -0.185209,-1.37584 -0.423333,-0.42333 -1.031875,-0.60854 -1.375833,-0.26458 z m -2.8575,-2.14313 c -0.185208,0.34396 0.07937,0.7673 0.608542,1.03188 0.423333,0.26458 0.9525,0.18521 1.137708,-0.18521 0.185208,-0.34396 -0.07937,-0.76729 -0.608542,-1.03187 -0.529166,-0.15875 -0.9525,-0.0794 -1.137708,0.1852 z m 8.5725,9.41917 c -0.423333,0.34396 -0.264583,1.13771 0.343958,1.64042 0.608542,0.60854 1.375834,0.68791 1.719792,0.26458 0.343958,-0.34396 0.185208,-1.13771 -0.343958,-1.64042 -0.582084,-0.60854 -1.375834,-0.68791 -1.719792,-0.26458 z m -3.01625,-3.88937 c -0.423333,0.26458 -0.423333,0.9525 0,1.56104 0.423333,0.60854 1.137708,0.87312 1.481667,0.60854 0.423333,-0.34396 0.423333,-1.03188 0,-1.64042 -0.370417,-0.60854 -1.058334,-0.87312 -1.481667,-0.52916 z"
       id="path9"
       style="display:inline;opacity:1;mix-blend-mode:normal;fill:#ffffff;fill-opacity:1;stroke:url(#linearGradient3091);stroke-width:1.37081;stroke-dasharray:none;paint-order:fill markers stroke" /></g></svg>
